<svg width="14" height="14" viewBox="0 0 14 14" fill="none" xmlns="http://www.w3.org/2000/svg">
<path fill-rule="evenodd" clip-rule="evenodd" d="M7.55454 0.371435C7.50566 0.260545 7.42745 0.166632 7.32918 0.100807C7.2309 0.034982 7.11667 0 7 0C6.88333 0 6.7691 0.034982 6.67082 0.100807C6.57255 0.166632 6.49434 0.260545 6.44546 0.371435L4.69267 4.34769L0.539114 4.86358C0.423229 4.8779 0.313689 4.92668 0.223459 5.00413C0.133229 5.08158 0.0660861 5.18447 0.0299766 5.30062C-0.00613295 5.41677 -0.00969732 5.54131 0.0197052 5.65952C0.0491078 5.77772 0.110246 5.88463 0.195885 5.9676L3.26784 8.9402L2.45252 13.2361C2.42988 13.3558 2.44046 13.4799 2.48303 13.5935C2.52559 13.7072 2.59835 13.8057 2.69271 13.8775C2.78707 13.9492 2.89909 13.9912 3.01551 13.9984C3.13193 14.0056 3.24789 13.9778 3.34968 13.9182L7 11.7792L10.6503 13.9182C10.7522 13.978 10.8683 14.006 10.9849 13.9989C11.1015 13.9917 11.2137 13.9497 11.3082 13.8779C11.4027 13.806 11.4755 13.7073 11.518 13.5934C11.5605 13.4796 11.571 13.3553 11.5481 13.2355L10.7328 8.94084L13.8041 5.9676C13.8898 5.88463 13.9509 5.77772 13.9803 5.65952C14.0097 5.54131 14.0061 5.41677 13.97 5.30062C13.9339 5.18447 13.8668 5.08158 13.7765 5.00413C13.6863 4.92668 13.5768 4.8779 13.4609 4.86358L9.30672 4.34705L7.55454 0.371435Z" fill="#FCC417"/>
</svg>
