<svg width="15" height="14" viewBox="0 0 15 14" fill="none" xmlns="http://www.w3.org/2000/svg">
<path fill-rule="evenodd" clip-rule="evenodd" d="M8.09141 0.37145C8.04252 0.26056 7.96432 0.166647 7.86604 0.100822C7.76777 0.0349972 7.65354 1.52588e-05 7.53687 1.52588e-05C7.42019 1.52588e-05 7.30596 0.0349972 7.20769 0.100822C7.10941 0.166647 7.03121 0.26056 6.98233 0.37145L5.22954 4.34771L1.07598 4.8636C0.960094 4.87792 0.850554 4.92669 0.760324 5.00415C0.670094 5.0816 0.602951 5.18449 0.566842 5.30064C0.530732 5.41678 0.527168 5.54133 0.55657 5.65953C0.585973 5.77774 0.647112 5.88465 0.732751 5.96761L3.80471 8.94022L2.98939 13.2361C2.96674 13.3559 2.97733 13.4799 3.01989 13.5935C3.06246 13.7072 3.13522 13.8057 3.22958 13.8775C3.32394 13.9492 3.43595 13.9912 3.55237 13.9984C3.66879 14.0056 3.78475 13.9778 3.88655 13.9182L7.53687 11.7792L11.1872 13.9182C11.289 13.978 11.4052 14.006 11.5217 13.9989C11.6383 13.9918 11.7505 13.9498 11.845 13.8779C11.9395 13.806 12.0124 13.7073 12.0549 13.5935C12.0974 13.4796 12.1078 13.3554 12.085 13.2355L11.2696 8.94086L14.341 5.96761C14.4266 5.88465 14.4878 5.77774 14.5172 5.65953C14.5466 5.54133 14.543 5.41678 14.5069 5.30064C14.4708 5.18449 14.4036 5.0816 14.3134 5.00415C14.2232 4.92669 14.1136 4.87792 13.9978 4.8636L9.84358 4.34707L8.09141 0.37145Z" fill="#C4C4C4"/>
</svg>
