<svg width="21" height="17" viewBox="0 0 21 17" fill="none" xmlns="http://www.w3.org/2000/svg">
<path id="Vector" fill-rule="evenodd" clip-rule="evenodd" d="M0.263218 9.16556C0.0946711 8.98897 0 8.74959 0 8.5C0 8.25041 0.0946711 8.01103 0.263218 7.83444L7.46349 0.299763C7.54589 0.20723 7.64525 0.133011 7.75565 0.0815334C7.86606 0.030056 7.98524 0.00237846 8.10609 0.000146866C8.22694 -0.00208473 8.34697 0.0211773 8.45904 0.0685463C8.57111 0.115915 8.67292 0.186422 8.75838 0.275856C8.84385 0.365292 8.91123 0.471825 8.95649 0.5891C9.00176 0.706375 9.02399 0.831987 9.02186 0.958448C9.01973 1.08491 8.99327 1.20963 8.94408 1.32516C8.89489 1.44069 8.82396 1.54467 8.73554 1.63089L3.07132 7.55817L20.1 7.55817C20.3387 7.55817 20.5676 7.65739 20.7364 7.83402C20.9052 8.01065 21 8.25021 21 8.5C21 8.74979 20.9052 8.98935 20.7364 9.16598C20.5676 9.3426 20.3387 9.44183 20.1 9.44183H3.07132L8.73554 15.3691C8.82396 15.4553 8.89489 15.5593 8.94408 15.6748C8.99327 15.7904 9.01973 15.9151 9.02186 16.0416C9.02399 16.168 9.00176 16.2936 8.95649 16.4109C8.91123 16.5282 8.84385 16.6347 8.75838 16.7241C8.67292 16.8136 8.57111 16.8841 8.45904 16.9315C8.34697 16.9788 8.22694 17.0021 8.10609 16.9999C7.98524 16.9976 7.86606 16.9699 7.75565 16.9185C7.64525 16.867 7.54589 16.7928 7.46349 16.7002L0.263218 9.16556Z" fill="#F7F7F7"/>
</svg>
