<svg width="33" height="33" viewBox="0 0 33 33" fill="none" xmlns="http://www.w3.org/2000/svg">
<g id="iconoir:log-out">
<path id="Vector" d="M16.5 16.5H26.125M26.125 16.5L22 20.625M26.125 16.5L22 12.375M26.125 8.25V6.875C26.125 6.14565 25.8353 5.44618 25.3195 4.93046C24.8038 4.41473 24.1043 4.125 23.375 4.125H9.625C8.89565 4.125 8.19618 4.41473 7.68046 4.93046C7.16473 5.44618 6.875 6.14565 6.875 6.875V26.125C6.875 26.8543 7.16473 27.5538 7.68046 28.0695C8.19618 28.5853 8.89565 28.875 9.625 28.875H23.375C24.1043 28.875 24.8038 28.5853 25.3195 28.0695C25.8353 27.5538 26.125 26.8543 26.125 26.125V24.75" stroke="#F7F7F7" stroke-width="2" stroke-linecap="round" stroke-linejoin="round"/>
</g>
</svg>
